<?xml version="1.0" encoding="UTF-8"?>
<!DOCTYPE svg PUBLIC "-//W3C//DTD SVG 1.1//EN" "http://www.w3.org/Graphics/SVG/1.1/DTD/svg11.dtd">
<!-- Creator: CorelDRAW -->
<svg xmlns="http://www.w3.org/2000/svg" xml:space="preserve" version="1.1" style="shape-rendering:geometricPrecision; text-rendering:geometricPrecision; image-rendering:optimizeQuality; fill-rule:evenodd; clip-rule:evenodd"
viewBox="12300 19500 5100 2300"
 xmlns:xlink="http://www.w3.org/1999/xlink"
 xmlns:xodm="http://www.corel.com/coreldraw/odm/2003">
 <defs>
  <style type="text/css">
   <![CDATA[
    .fil1 {fill:#0071B9;fill-rule:nonzero}
    .fil0 {fill:#005EC4;fill-rule:nonzero}
   ]]>
  </style>
 </defs>
 <g id="__x0023_Layer_x0020_1">
  <metadata id="CorelCorpID_0Corel-Layer"/>
  <polygon class="fil0" points="17160.7,21663.96 16740.67,21663.96 16740.67,21243.93 17160.7,21243.93 "/>
  <polygon class="fil0" points="12942.26,19645.1 12942.26,20825.95 12766.46,20825.95 12766.46,19799.38 12668.62,19799.38 12668.62,20825.95 12492.85,20825.95 12492.85,19645.1 "/>
  <path class="fil0" d="M13308.78 20825.95l0 -1180.85 184.08 0c194.02,0 275.29,71.32 275.29,230.55l0 255.42c0,192.37 -96.18,242.12 -283.6,242.12l0 452.76 -175.77 0zm175.77 -593.73l0 0c51.44,0 107.8,-6.62 107.8,-53.09l0 -280.26c0,-109.45 -36.48,-112.79 -107.8,-112.79l0 446.14z"/>
  <path class="fil0" d="M14134.64 19820.91c0,-154.21 121.1,-198.99 228.9,-198.99 109.45,0 230.51,44.78 230.51,198.99l0 829.23c0,154.27 -121.06,198.99 -230.51,198.99 -107.8,0 -228.9,-44.72 -228.9,-198.99l0 -829.23zm175.81 814.31l0 0c0,59.71 18.25,72.97 54.74,72.97 34.83,0 53.05,-13.26 53.05,-72.97l0 -799.36c0,-59.7 -18.22,-72.97 -53.05,-72.97 -36.49,0 -54.74,13.27 -54.74,72.97l0 799.36z"/>
  <path class="fil0" d="M15220.94 19645.1l56.4 487.62c8.3,66.32 28.14,240.47 28.14,368.15l8.34 0c5,-122.72 6.62,-271.96 16.57,-366.49l48.13 -489.28 260.41 0 0 1180.85 -154.3 0 0 -543.98c0,-139.32 4.99,-371.49 6.61,-419.58l-6.61 0c-9.99,87.88 -36.48,391.39 -43.1,454.41l-61.36 509.15 -160.85 0 -63.08 -568.86c-13.23,-121.06 -29.83,-293.56 -41.44,-394.7l-6.62 0c1.62,29.83 6.62,174.11 6.62,230.51l0 733.05 -154.21 0 0 -1180.85 260.35 0z"/>
  <polygon class="fil0" points="16396.75,19645.1 16396.75,19799.38 16181.19,19799.38 16181.19,20097.89 16388.48,20097.89 16388.48,20252.13 16181.19,20252.13 16181.19,20671.71 16400.09,20671.71 16400.09,20825.95 16005.42,20825.95 16005.42,19645.1 "/>
  <polygon class="fil0" points="17192.81,19645.1 17192.81,19799.38 17038.61,19799.38 17038.61,20825.95 16862.77,20825.95 16862.77,19799.38 16708.47,19799.38 16708.47,19645.1 "/>
  <g id="_2017358460176">
   <g>
    <g>
     <g>
      <path class="fil1" d="M12624.78 21614.87l-66.95 0c-41.56,0 -54.78,-24.98 -54.78,-103.74l0 -83.46c0,-85.96 14.07,-110.09 58.27,-110.09l59.76 0c35.5,0 57.81,19.91 57.81,102.57l-35.95 0c0,-31.03 -7.99,-44.16 -28.8,-44.16l-46.11 0c-24.04,0 -29.02,8.07 -29.02,54.25l0 72.82c0,44.97 8.45,53.34 29.02,53.34l46.11 0c21.45,0 28.8,-7.57 28.8,-43.13l36.19 0c-0.24,78.34 -9.95,101.6 -54.35,101.6z"/>
      <path class="fil1" d="M12861.03 21506.91c0,39.77 -5.2,49.49 -28.15,49.49l-47.64 0c-21.86,0 -28.17,-10.57 -28.17,-49.12l0 -78.32c0,-41.92 6.31,-52.97 28.81,-52.97l46.38 0c21.42,0 28.77,9.77 28.77,52.48l0 78.44zm35.96 7.59l0 0 0 -92.33c0,-82.53 -17.12,-104.59 -54.38,-104.59l-66.04 0c-40.93,0 -55.44,24.13 -55.44,104.59l0 92.33c0,71.24 15.17,100.37 55.44,100.37l66.04 0c42.04,0 54.38,-27.06 54.38,-100.37z"/>
      <polygon class="fil1" points="13086.47,21614.87 13033.22,21498.86 12979.94,21614.87 12927.1,21614.87 13004.84,21463.65 12935.54,21321 12984.26,21321 13033.22,21428.17 13082.15,21321 13130.88,21321 13061.57,21463.65 13139.31,21614.87 "/>
      <path class="fil1" d="M13291.34 21423.95c0,31.7 -5.19,45.7 -23.37,45.7l-59.98 0 0 -90.23 59.98 0c18.85,0 23.37,15.69 23.37,44.53zm35.97 0l0 0c0,-74.22 -14.95,-102.95 -52.86,-102.95l-102.44 0 0 293.87 35.98 0 0 -86.82 66.9 0c37.07,0 52.19,-29.62 52.42,-104.1z"/>
      <path class="fil1" d="M13490.6 21485.29l-59.99 0 29.65 -109.3 1.74 0 28.6 109.3zm76.01 129.58l0 0 -79.03 -293.87 -53.28 0 -79.7 293.87 42 0 19.5 -74.11 89.03 0 19.26 74.11 42.22 0z"/>
      <polygon class="fil1" points="13725.8,21614.87 13725.8,21492.06 13632.89,21492.06 13632.89,21614.87 13596.94,21614.87 13596.94,21321 13632.89,21321 13632.89,21433.66 13725.8,21433.66 13725.8,21321 13761.73,21321 13761.73,21614.87 "/>
      <polygon class="fil1" points="13963.6,21614.87 13963.6,21379.42 13958.63,21379.42 13868.29,21614.87 13806.58,21614.87 13806.58,21321 13842.52,21321 13842.52,21556.4 13847.51,21556.4 13939.12,21321 13999.52,21321 13999.52,21614.87 "/>
      <polygon class="fil1" points="14247.92,21614.87 14247.92,21379.42 14243.18,21379.42 14191.64,21614.87 14140.51,21614.87 14088.97,21379.42 14084.2,21379.42 14084.2,21614.87 14048.26,21614.87 14048.26,21321 14115.2,21321 14164.98,21556.4 14167.17,21556.4 14216.96,21321 14283.89,21321 14283.89,21614.87 "/>
      <path class="fil1" d="M14553.18 21522.19c0,25.84 -2.55,34.21 -21.83,34.21l-62.2 0 0 -67.26 63.49 0c18.63,0 20.54,10.64 20.54,33.05zm35.98 0.73l0 0c0,-74.84 -18.86,-92.25 -54.36,-92.25l-65.65 0 0 -54.2 105.06 0 0 -55.47 -140.97 0 0 293.87 102.41 0c35.72,0 53.51,-17.71 53.51,-91.95z"/>
      <polygon class="fil1" points="14636.35,21614.87 14636.35,21321 14789.92,21321 14789.92,21376.47 14672.32,21376.47 14672.32,21440.88 14786.22,21440.88 14786.22,21492.06 14672.32,21492.06 14672.32,21559.45 14789.92,21559.45 14789.92,21614.87 "/>
      <path class="fil1" d="M14954.27 21614.87l-72.54 0c-38.33,0 -49.83,-25.84 -49.83,-83.4l35.96 0c0,14.36 7.59,27.98 17.77,27.98l60.18 0c15.83,0 23.24,-9.4 23.24,-33.04 0,-21.13 -3.71,-33.85 -24.3,-33.85l-66.05 0 0 -51.32 70.17 0c10,0 17.34,-7.58 17.34,-34.21 0,-22.49 -7.19,-30.56 -17.34,-30.56l-60.39 0c-15.18,0 -17.77,9.72 -18.4,27.56l-35.99 0c0,-56.82 14.93,-83.03 51.3,-83.03l61.1 0c40.03,0 55.65,23.34 55.65,83.03 0,37.21 -8,52.48 -20.15,62.19 13.9,9.78 22.99,26.34 22.99,59.33 0,62.69 -15.19,89.32 -50.71,89.32z"/>
      <polygon class="fil1" points="15278.78,21614.87 15278.78,21379.42 15185.87,21379.42 15185.87,21614.87 15149.94,21614.87 15149.94,21321 15314.71,21321 15314.71,21614.87 "/>
      <path class="fil1" d="M15497.28 21506.91c0,39.77 -5.15,49.49 -28.15,49.49l-47.63 0c-21.88,0 -28.15,-10.57 -28.15,-49.12l0 -78.32c0,-41.92 6.27,-52.97 28.77,-52.97l46.4 0c21.39,0 28.76,9.77 28.76,52.48l0 78.44zm35.97 7.59l0 0 0 -92.33c0,-82.53 -17.1,-104.59 -54.37,-104.59l-66.03 0c-40.97,0 -55.47,24.13 -55.47,104.59l0 92.33c0,71.24 15.16,100.37 55.47,100.37l66.03 0c42.06,0 54.37,-27.06 54.37,-100.37z"/>
      <polygon class="fil1" points="15669.9,21379.42 15669.9,21614.87 15633.93,21614.87 15633.93,21379.42 15571.17,21379.42 15571.17,21321 15733.31,21321 15733.31,21379.42 "/>
      <polygon class="fil1" points="15771.06,21614.87 15771.06,21321 15924.55,21321 15924.55,21376.47 15806.99,21376.47 15806.99,21440.88 15920.89,21440.88 15920.89,21492.06 15806.99,21492.06 15806.99,21559.45 15924.55,21559.45 15924.55,21614.87 "/>
      <path class="fil1" d="M16088.1 21423.95c0,31.7 -5.22,45.7 -23.41,45.7l-59.95 0 0 -90.23 59.95 0c18.87,0 23.41,15.69 23.41,44.53zm35.92 0l0 0c0,-74.22 -14.93,-102.95 -52.86,-102.95l-102.37 0 0 293.87 35.95 0 0 -86.82 66.93 0c37.01,0 52.2,-29.62 52.35,-104.1z"/>
      <path class="fil1" d="M16281.7 21522.19c0,25.84 -2.59,34.21 -21.87,34.21l-62.17 0 0 -67.26 63.42 0c18.68,0 20.62,10.64 20.62,33.05zm35.96 0.73l0 0c0,-74.84 -18.84,-92.25 -54.36,-92.25l-65.64 0 0 -109.67 -35.93 0 0 293.87 102.41 0c35.78,0 53.52,-17.71 53.52,-91.95z"/>
     </g>
    </g>
   </g>
  </g>
 </g>
</svg>
